<?xml version="1.0" standalone="no"?><!DOCTYPE svg PUBLIC "-//W3C//DTD SVG 1.1//EN" "http://www.w3.org/Graphics/SVG/1.1/DTD/svg11.dtd"><svg t="1779677195033" class="icon" viewBox="0 0 1024 1024" version="1.1" xmlns="http://www.w3.org/2000/svg" p-id="5856" xmlns:xlink="http://www.w3.org/1999/xlink" width="200" height="200"><path d="M373.312 536.128a32 32 0 0 1-45.184 0.064l-57.024-56.64a32.064 32.064 0 0 1 45.312-45.44l34.304 34.368 92.8-92.8a31.936 31.936 0 1 1 45.12 45.12L373.312 536.128zM736 430.08a32 32 0 0 1 0 64H590.08a32 32 0 0 1 0-64h145.92zM373.312 777.408a32 32 0 0 1-45.184 0.064l-57.024-56.64a32.064 32.064 0 0 1 45.312-45.44l34.304 34.368 92.608-93.12a32.064 32.064 0 0 1 45.44 45.312l-115.456 115.456zM736 671.36a32 32 0 0 1 0 64H590.08a32 32 0 0 1 0-64h145.92z" p-id="5857" fill="#ffffff"></path><path d="M320 64a32 32 0 0 1 32-32h320a32 32 0 0 1 32 32v32h160a32 32 0 0 1 32 32v832a32 32 0 0 1-32 32h-704A32 32 0 0 1 128 960V128a32 32 0 0 1 32-32H320V64z m0 96H192v768h640v-768h-128V192a32 32 0 0 1-32 32h-320A32 32 0 0 1 320 192v-32z m54.848 0h274.304v-64H374.848v64z" p-id="5858" fill="#ffffff"></path></svg>